<?xml version="1.0" standalone="no"?>
<!DOCTYPE svg PUBLIC "-//W3C//DTD SVG 20010904//EN"
 "http://www.w3.org/TR/2001/REC-SVG-20010904/DTD/svg10.dtd">
<svg version="1.0" xmlns="http://www.w3.org/2000/svg"
 width="512.000000pt" height="512.000000pt" viewBox="0 0 512.000000 512.000000"
 preserveAspectRatio="xMidYMid meet">
<metadata>
Created by potrace 1.14, written by Peter Selinger 2001-2017
</metadata>
<g transform="translate(0.000000,512.000000) scale(0.100000,-0.100000)"
fill="#000000" stroke="none">
<path d="M804 4916 c-10 -5 -26 -12 -33 -16 -23 -10 -51 -52 -58 -85 -5 -27
-7 -621 -3 -1247 1 -125 -1 -232 -5 -238 -3 -5 -3 -10 2 -10 4 0 8 -152 7
-338 -1 -322 0 -339 19 -373 31 -54 105 -77 187 -57 19 4 53 10 75 13 42 6 80
13 80 15 0 1 18 3 40 5 22 2 51 6 65 9 55 12 77 16 114 21 21 2 46 6 55 9 9 3
39 7 66 11 28 3 57 8 65 10 8 2 35 7 60 10 25 3 56 7 70 10 14 2 42 7 63 9 21
3 42 8 47 11 6 3 10 2 10 -4 0 -8 -44 -23 -65 -22 -2 0 -19 -5 -37 -10 -18 -5
-46 -12 -62 -15 -16 -2 -37 -9 -47 -15 -11 -5 -19 -7 -19 -4 0 4 -73 -21 -140
-48 -14 -6 -27 -11 -30 -11 -15 -3 -167 -83 -178 -94 -7 -6 -18 -12 -24 -12
-6 0 -38 -24 -71 -53 -70 -60 -160 -177 -188 -245 -11 -26 -24 -55 -30 -65
-27 -50 -29 -286 -3 -329 3 -4 7 -18 9 -29 3 -12 19 -51 36 -88 18 -36 33 -68
33 -71 1 -6 34 -52 64 -90 12 -15 22 -32 22 -36 1 -12 138 -123 178 -145 51
-27 135 -62 157 -66 11 -2 27 -6 35 -10 42 -17 179 -22 210 -7 14 8 39 27 55
44 33 35 41 68 36 147 -2 39 -73 106 -121 115 -3 1 -23 5 -45 10 -22 6 -50 12
-62 14 -26 5 -96 37 -138 62 -26 16 -125 145 -125 164 0 3 -5 19 -12 35 -30
74 -30 170 1 207 7 9 11 16 8 16 -11 0 43 74 71 99 35 30 100 73 132 88 82 37
105 46 108 44 1 -1 16 6 32 14 16 8 31 15 32 15 2 -1 10 1 18 4 41 13 128 36
150 40 14 3 36 8 50 11 14 4 36 8 50 10 14 2 36 6 50 9 14 3 48 8 75 11 28 2
61 7 75 10 23 6 112 11 288 18 34 1 62 -1 62 -6 0 -4 6 -5 13 0 17 11 127 11
127 0 0 -6 5 -6 13 -1 6 5 30 8 52 6 101 -7 492 -8 511 -1 11 4 27 3 34 -1 8
-5 19 -6 25 -2 13 8 27 11 100 17 33 2 74 7 90 10 17 3 46 7 65 9 19 2 53 9
75 15 22 5 52 12 68 15 15 3 37 8 50 12 12 4 27 8 32 9 6 0 30 7 55 15 25 7
47 14 50 15 3 1 19 7 35 14 17 7 35 14 40 16 62 15 211 118 295 205 65 66 148
184 151 215 0 6 5 15 9 20 5 6 12 26 15 45 3 18 8 37 11 41 2 4 7 44 9 89 2
45 7 85 10 90 4 6 3 10 -2 10 -4 0 -8 26 -7 57 0 32 -4 66 -9 76 -5 10 -11 31
-13 45 -3 15 -22 61 -42 102 -53 108 -158 210 -283 275 -52 27 -103 51 -113
52 -11 2 -25 8 -33 14 -7 6 -13 9 -13 6 0 -3 -15 -1 -32 4 -18 6 -42 12 -53
14 -11 2 -31 6 -45 10 -14 4 -36 8 -50 9 -14 1 -31 6 -38 10 -7 4 -12 4 -12 0
0 -3 -6 -2 -12 3 -28 20 -122 1 -159 -33 -14 -13 -16 8 -15 241 1 140 -2 255
-6 255 -3 0 -4 9 -1 21 9 33 -56 111 -97 116 -8 1 -28 5 -45 9 -16 4 -45 7
-62 8 -18 0 -33 3 -33 6 0 3 -8 6 -17 7 -37 2 -109 12 -143 21 -19 4 -50 8
-67 7 -18 0 -33 3 -33 7 0 4 -3 7 -7 7 -5 -1 -10 0 -13 1 -18 7 -51 12 -87 13
-24 1 -43 4 -43 7 0 3 -19 6 -43 7 -23 0 -54 4 -69 7 -32 7 -75 14 -133 21
-22 3 -47 8 -55 11 -8 3 -40 8 -70 10 -30 3 -57 8 -60 12 -3 4 -21 8 -40 8
-19 1 -51 5 -70 8 -19 4 -48 9 -65 11 -16 2 -43 6 -60 9 -16 4 -46 9 -65 11
-19 3 -46 8 -58 11 -27 5 -94 16 -132 19 -14 2 -25 4 -25 5 0 3 -29 7 -77 11
-21 2 -38 6 -38 9 0 3 -12 6 -27 6 -26 1 -48 5 -133 20 -19 3 -47 6 -62 7 -16
0 -28 3 -28 7 0 3 -8 6 -17 7 -58 4 -132 14 -160 22 -18 5 -40 8 -50 7 -10 -2
-29 1 -43 6 -14 5 -48 11 -76 13 -28 3 -63 9 -77 14 -14 6 -37 8 -51 5 -14 -2
-26 -1 -26 3 0 12 -83 11 -106 -1z m618 -1201 c29 -17 33 -79 32 -425 -2 -407
-1 -373 -19 -367 -8 4 -17 2 -20 -3 -3 -5 -16 -8 -28 -6 -12 2 -29 0 -37 -4
-13 -7 -15 36 -14 363 0 205 4 383 8 397 10 29 36 58 51 56 6 -1 18 -6 27 -11z
m2048 -95 c25 -7 59 -14 75 -16 17 -1 49 -9 72 -18 22 -8 43 -13 46 -10 3 4
17 -1 92 -31 11 -5 23 -9 27 -9 23 -3 128 -90 139 -116 8 -16 17 -30 20 -30 6
0 18 -39 26 -85 7 -41 2 -170 -7 -170 -1 0 -3 -7 -5 -15 -15 -68 -92 -162
-177 -217 -24 -15 -45 -28 -48 -28 -7 -2 -81 -36 -112 -52 -16 -8 -28 -11 -28
-7 0 3 -7 1 -15 -6 -8 -7 -15 -10 -15 -6 0 3 -15 0 -34 -8 -19 -8 -37 -12 -40
-9 -2 3 -20 0 -38 -6 -18 -6 -46 -12 -63 -15 -16 -3 -48 -7 -70 -11 -22 -3
-58 -8 -80 -10 -22 -3 -56 -7 -75 -11 -19 -3 -271 -7 -560 -8 -289 0 -529 -4
-535 -7 -16 -9 -55 -5 -55 6 0 6 9 11 20 11 11 1 21 2 23 4 1 1 18 3 37 4 19
1 44 5 55 9 11 4 42 9 69 11 26 3 56 8 65 11 9 3 35 7 56 9 22 3 51 7 65 11
14 3 43 7 65 9 22 3 51 7 65 11 14 3 43 8 65 10 41 5 80 12 80 15 0 1 18 3 40
5 22 2 51 6 65 10 14 3 39 8 55 10 17 2 41 6 55 8 58 10 117 20 140 23 14 1
36 5 50 8 14 2 39 7 57 9 17 3 37 8 44 13 8 5 10 3 4 -5 -6 -10 -3 -11 11 -3
11 5 38 13 62 17 42 7 101 52 103 78 0 7 3 21 5 32 3 11 6 158 7 328 l1 307
25 -24 c14 -13 46 -30 71 -36z m-1489 -306 c19 -23 21 -35 22 -171 l2 -123
-25 -8 c-14 -4 -40 -7 -59 -7 l-34 0 -2 130 c-1 130 6 173 28 187 20 13 54 9
68 -8z m7 -599 c-2 -3 -26 -7 -51 -9 -26 -3 -56 -7 -66 -11 -11 -3 -22 -2 -25
3 -3 5 0 9 7 9 31 1 122 15 126 19 2 2 7 2 9 -1 3 -3 3 -7 0 -10z m-163 -25
c-2 -4 -14 -6 -27 -5 -13 1 -31 -2 -40 -7 -11 -5 -18 -5 -18 1 0 5 8 11 18 13
29 6 71 5 67 -2z"/>
<path d="M4115 2459 c-16 -5 -46 -11 -65 -14 -19 -2 -51 -7 -70 -10 -19 -3
-48 -7 -65 -10 -16 -2 -43 -7 -60 -10 -16 -4 -43 -8 -60 -10 -29 -4 -44 -6
-125 -20 -19 -4 -48 -8 -65 -10 -16 -2 -41 -6 -55 -9 -14 -3 -45 -8 -69 -11
-25 -3 -54 -8 -65 -10 -28 -7 -85 -16 -113 -17 -13 -1 -23 -4 -23 -7 0 -4 -15
-6 -32 -7 -18 0 -49 -4 -68 -8 -19 -4 -53 -9 -75 -11 -41 -5 -80 -12 -80 -15
0 -1 -13 -3 -30 -5 -38 -4 -112 -15 -145 -21 -14 -3 -36 -7 -50 -9 -14 -2 -25
-4 -25 -5 0 -2 -34 -8 -85 -15 -46 -5 -85 -12 -85 -15 0 -1 -18 -3 -40 -4 -22
-2 -50 -6 -61 -10 -12 -4 -41 -9 -65 -11 -24 -2 -55 -7 -69 -10 -14 -4 -43 -8
-65 -11 -40 -4 -80 -11 -80 -14 0 -2 -72 -11 -107 -13 -16 -1 -28 -5 -28 -8 0
-3 -20 -5 -44 -5 -24 1 -42 -2 -39 -6 2 -5 -7 -9 -21 -9 -32 -2 -65 -6 -68 -9
-2 -1 -16 -3 -33 -5 -79 -8 -122 -29 -152 -73 -22 -33 -22 -38 -23 -384 0
-193 -3 -354 -5 -358 -3 -5 1 -11 7 -13 7 -3 9 -6 3 -6 -6 -1 -9 -32 -8 -78 2
-43 4 -200 5 -350 l3 -272 34 -35 c19 -20 48 -37 70 -42 20 -4 43 -9 51 -11 8
-2 29 -6 45 -8 17 -2 55 -9 85 -15 30 -6 73 -13 95 -15 22 -2 51 -7 65 -10 14
-4 40 -8 59 -10 19 -2 50 -7 70 -11 20 -3 46 -7 58 -9 13 -2 42 -7 65 -11 24
-4 52 -9 63 -10 11 -2 34 -5 50 -8 17 -3 55 -8 85 -12 30 -3 57 -9 60 -13 3
-3 23 -7 45 -8 38 -1 61 -4 115 -17 29 -6 96 -17 195 -31 17 -3 44 -7 60 -11
17 -3 46 -7 65 -8 19 -2 51 -8 70 -13 19 -6 45 -9 58 -8 12 1 22 -1 22 -5 0
-4 10 -6 23 -5 12 1 36 -2 52 -6 30 -8 113 -21 148 -22 9 -1 17 -4 17 -7 0 -3
15 -6 33 -6 46 -3 111 -13 187 -30 14 -3 42 -7 63 -9 21 -2 60 -8 85 -14 26
-5 54 -10 62 -10 8 1 26 -2 40 -6 14 -4 39 -8 55 -10 17 -2 46 -7 65 -10 19
-3 61 -8 92 -10 49 -3 62 0 92 23 75 57 70 -27 71 1162 1 1056 1 1065 -19
1106 -31 62 -68 81 -151 81 -39 0 -83 -4 -100 -8z m-382 -1211 c22 -23 22 -24
21 -388 -2 -459 1 -413 -26 -404 -13 4 -35 7 -50 7 -16 0 -28 5 -30 16 -2 9
-4 184 -3 389 0 357 1 375 20 388 26 20 42 18 68 -8z m-531 -411 c2 -7 4 -75
3 -152 -1 -114 -3 -139 -15 -137 -7 2 -32 5 -54 6 -41 3 -41 3 -43 47 -1 24
-2 49 -3 54 -5 35 3 172 11 188 21 39 88 35 101 -6z"/>
</g>
</svg>
